# xmcd
#
# Track frame offsets:
#	150
#	16615
#	33372
#	48116
#	63334
#	84461
#	101487
#	118099
#	134266
#	147075
#	162974
#	180912
#	198314
#	214649
#	230654
#	245435
#
# Disc length: 3502 seconds
#
# Revision: 1
# Processed by: cddbd v1.5.2PL0 Copyright (c) Steve Scherf et al.
# Submitted via: EasyCDDAExtractor 6.5.0.1
#
DISCID=ca0dac10
DTITLE=мийос оийомолопоукос - пяытг ацапг
DYEAR=2007
DGENRE=General World
TTITLE0=дем еисаи емтанеи
TTITLE1=ецйкгла йаядиас
TTITLE2=ауто то астеяи
TTITLE3=епийимдумг ацапг
TTITLE4=ока циа сема
TTITLE5=та еида ока
TTITLE6=де ле сулжеяеи
TTITLE7=пяытг ацапг
TTITLE8=пеяаслемес тяеис
TTITLE9=опыс ацапас
TTITLE10=адиажояы
TTITLE11=латиа лоу
TTITLE12=асе ле стг тяека лоу
TTITLE13=йоита ма лахаимеис
TTITLE14=ока лас выяифоум
TTITLE15=дуо спаслема потгяиа
EXTD=
EXTT0=
EXTT1=
EXTT2=
EXTT3=
EXTT4=
EXTT5=
EXTT6=
EXTT7=
EXTT8=
EXTT9=
EXTT10=
EXTT11=
EXTT12=
EXTT13=
EXTT14=
EXTT15=
PLAYORDER=
